<?xml version="1.0" encoding="utf-8"?>
<!-- Generator: Adobe Illustrator 22.0.0, SVG Export Plug-In . SVG Version: 6.00 Build 0)  -->
<svg version="1.1" id="Layer_1" xmlns="http://www.w3.org/2000/svg" xmlns:xlink="http://www.w3.org/1999/xlink" x="0px" y="0px"
	 viewBox="0 0 100 100" style="enable-background:new 0 0 100 100;" xml:space="preserve">
<style type="text/css">
	.st0{fill-rule:evenodd;clip-rule:evenodd;fill:#FFFFFF;}
	.st1{fill:#1ABC9C;}
</style>
<g>
	<path class="st0" d="M23.5,2.9h48.8c10.5,0,19.2,8.7,19.2,19.2v48.8c0,10.6-8.7,19.2-19.2,19.2H23.5C13,90.2,4.3,81.5,4.3,70.9
		V22.1C4.3,11.6,13,2.9,23.5,2.9L23.5,2.9z"/>
	<g>
		<g>
			<path class="st1" d="M63.6,82.1H32.8c-11.2,0-20.4-9.1-20.4-20.4V30.9c0-11.2,9.1-20.4,20.4-20.4h30.8c11.2,0,20.4,9.1,20.4,20.4
				v30.8C84,72.9,74.9,82.1,63.6,82.1z M32.8,16.6c-7.9,0-14.2,6.4-14.2,14.2v30.8c0,7.9,6.4,14.2,14.2,14.2h30.8
				c7.9,0,14.2-6.4,14.2-14.2V30.9c0-7.9-6.4-14.2-14.2-14.2H32.8z"/>
		</g>
		<g>
			<path class="st1" d="M48.2,64.6c-10.1,0-18.3-8.2-18.3-18.3c0-10.1,8.2-18.3,18.3-18.3c10.1,0,18.3,8.2,18.3,18.3
				C66.5,56.4,58.3,64.6,48.2,64.6z M48.2,34.1c-6.7,0-12.2,5.5-12.2,12.2s5.5,12.2,12.2,12.2c6.7,0,12.2-5.5,12.2-12.2
				S54.9,34.1,48.2,34.1z"/>
		</g>
		<g>
			<path class="st1" d="M71.7,26.9c0,2.4-2,4.4-4.4,4.4c-2.4,0-4.4-2-4.4-4.4c0-2.4,2-4.4,4.4-4.4C69.8,22.5,71.7,24.5,71.7,26.9z"
				/>
		</g>
	</g>
</g>
</svg>
