<?xml version="1.0" encoding="utf-8"?>
<!-- Generator: Adobe Illustrator 16.0.0, SVG Export Plug-In . SVG Version: 6.00 Build 0)  -->
<!DOCTYPE svg PUBLIC "-//W3C//DTD SVG 1.1//EN" "http://www.w3.org/Graphics/SVG/1.1/DTD/svg11.dtd">
<svg version="1.1" id="Layer_1" xmlns="http://www.w3.org/2000/svg" xmlns:xlink="http://www.w3.org/1999/xlink" x="0px" y="0px"
	 width="1000px" height="1000px" viewBox="0 0 1000 1000" enable-background="new 0 0 1000 1000" xml:space="preserve">
<g>
	<polygon fill="#1ABC9C" points="259,661 259,192 93,192 93,809 384,809 384,661 	"/>
	<g>
		<g>
			<path fill="#1ABC9C" d="M256.311,808.424H433.68L441.28,661H273.498L256.311,808.424z M846.742,191.629H641.009l-42.345,223.309
				c-6.13,30.897-10.924,65.914-14.381,105.062c-1.866-23.431-3.935-45.141-6.193-65.115c-2.264-19.973-4.862-38.479-7.788-55.525
				L535.547,191.63h-207.33l-49.706,426.362h165.233l4.715-89.201l3.995-113.853c1.859,18.113,3.06,30.099,3.596,35.952
				c4.524,38.889,8.12,66.314,10.787,82.292l44.741,275.24H647.4l52.331-274.841c3.456-18.376,6.394-37.352,8.786-56.926
				c2.397-19.575,4.526-40.148,6.395-61.721l5.191,112.255l12.388,281.23h174.171L846.742,191.629z"/>
		</g>
	</g>
</g>
</svg>
