<?xml version="1.0" encoding="utf-8"?>
<!-- Generator: Adobe Illustrator 22.0.0, SVG Export Plug-In . SVG Version: 6.00 Build 0)  -->
<svg version="1.1" id="Layer_1" xmlns="http://www.w3.org/2000/svg" xmlns:xlink="http://www.w3.org/1999/xlink" x="0px" y="0px"
	 viewBox="0 0 100 100" style="enable-background:new 0 0 100 100;" xml:space="preserve">
<style type="text/css">
	.st0{fill:#FFFFFF;}
</style>
<path class="st0" d="M89.1,69.6L89.1,69.6L89.1,69.6c-0.1-0.1-0.1-0.1-0.1-0.1L89.1,69.6c-1.1-0.7-2-0.8-2.6-1h0
	c-4.2-1.3-7.7-4.2-10.3-7.6c-1.5-1.9-2.8-4-3.6-6.2l0,0c-0.3-1-0.3-2.1,0.1-2.7h0.1c0.7-1,2.1-1.8,3.6-2.3l0,0
	c1.6-0.5,3.4-1.2,4.8-2.5l0,0c0.3-0.2,0.6-0.5,0.7-0.9c0-0.1,0.1-0.2,0.1-0.3c0.1-0.3,0.1-0.8-0.1-1.3l0,0c-0.4-0.9-1.1-1.3-1.6-1.6
	l0,0c-1-0.5-2-0.5-2.9-0.3l0,0c-1,0.3-1.8,0.7-2.6,0.7c0,0,0,0.1,0,0.1c-1.1,0.1-2.2,0.2-2.9-0.1c0-0.1,0-0.4-0.1-0.7l0,0
	c0-1.7,0.1-3.6,0.1-5.5l0,0c0.1-2.9,0.2-5.8-0.2-8.7v-0.1c-1-5-4.2-9.3-8.2-12.2c-2.9-2-6.5-3.2-10.1-3.5l0,0
	c-1.2-0.1-2.4-0.2-3.6-0.2c-4.8,0.1-9.8,1.3-13.7,4.4c-2.9,2.3-5.3,5.3-6.7,8.7c0,0,0,0,0,0c-1.4,3.5-1.3,7.2-1,10.7l0,0
	c0,2.4,0.3,4.7,0.1,7c0,0,0,0-0.1,0.1c-1.1,0.2-2.3,0.1-3.4-0.1c0,0,0,0,0,0c-0.8-0.1-1.6-0.5-2.6-0.7c0,0,0,0-0.1,0
	c-0.9-0.3-1.9,0-2.6,0.6h0c0,0,0,0,0,0c-0.6,0.4-1.4,1-1.5,2.2c0,0,0,0.1,0,0.2h0c0.1,0.7,0.5,1.1,0.9,1.4c0.3,0.3,0.6,0.5,0.9,0.6
	c0,0.1,0,0.1,0,0.1c1.8,1.2,3.8,1.6,5.4,2.3l0,0c1.2,0.5,2.2,1.3,2.4,2.3c0.3,1.3-0.2,2.7-1,4.1l0,0c-1.9,3.8-4.7,7-8.2,9.4
	c-1.8,1.2-3.9,2.1-6,2.7h0c-0.5,0.2-1.6,0.3-2.2,1.3c0,0-0.1,0.1-0.1,0.3c-0.2,0.6,0,1.3,0.3,1.6c0.3,0.3,0.6,0.6,1,0.7l0,0
	c1.8,1.1,3.8,1.5,5.6,1.9l0,0c1.3,0.3,2.6,0.5,3.5,0.9c0,0.1,0.2,0.4,0.4,1c0.3,1,0.5,2.2,0.9,3.4c0.1,0.3,0.4,0.6,0.7,0.6
	c0.8,0.2,1.3-0.1,1.3-0.1c0,0,0,0,0,0c3.1-0.5,6.1-0.9,8.8-0.3l0,0c2.9,0.7,5.4,2.7,8.3,4.5l0,0c1.9,1.2,4.1,2.3,6.6,2.4l0,0
	c1.9,0.1,3.8,0,5.6-0.1l0,0c1.6-0.1,3.1-0.7,4.4-1.5l0.1-0.1c3-1.6,5.6-3.7,8.5-5l0,0c1-0.3,2.2-0.3,3.5-0.4l0,0
	c2.4,0,4.8,0.1,7.2,0.4c0.1,0,0.2,0,0.3,0c0.3,0,0.7-0.3,0.8-0.4c0.2-0.2,0.2-0.4,0.3-0.6c0.1-0.2,0.1-0.3,0-0.1
	c0.1,0,0.1-0.1,0.1-0.2c0.4-1.5,0.7-2.8,1.3-3.6c0.3-0.3,0.9-0.5,1.5-0.5c0,0,0.1,0,0.2,0c2-0.3,3.9-1,5.7-1.6c0-0.1,0-0.1,0.1-0.1
	c0.6-0.3,1.6-0.6,2.3-1.5c0,0,0,0,0.1,0h-0.1C90.2,71.1,89.9,70.1,89.1,69.6L89.1,69.6z"/>
</svg>
