<?xml version="1.0" encoding="utf-8"?>
<!-- Generator: Adobe Illustrator 22.0.0, SVG Export Plug-In . SVG Version: 6.00 Build 0)  -->
<svg version="1.1" id="Layer_1" xmlns="http://www.w3.org/2000/svg" xmlns:xlink="http://www.w3.org/1999/xlink" x="0px" y="0px"
	 viewBox="0 0 100 100" style="enable-background:new 0 0 100 100;" xml:space="preserve">
<style type="text/css">
	.st0{fill:#FFFFFF;}
</style>
<path class="st0" d="M89.6,25.8c-2.9,1.2-6,2.1-9.3,2.5c3.4-2,6-5.1,7.2-8.9c-3.1,1.8-6.7,3.2-10.3,3.9c-2.9-3.1-7.2-5.1-11.9-5.1
	c-8.9,0-16.2,7.2-16.2,16c0,1.3,0.2,2.5,0.5,3.7c-13.5-0.6-25.5-7-33.5-16.7c-1.4,2.4-2.2,5.1-2.2,8c0,5.6,2.9,10.5,7.2,13.3
	c-2.7,0-5.2-0.8-7.3-2c0,0.1,0,0.1,0,0.2c0,2.1,0.4,4,1.1,5.8c2,5,6.5,8.8,11.9,9.9C25.4,56.8,24,57,22.5,57c-1,0-2.1-0.1-3.1-0.3
	c2.1,6.4,8.1,11,15.2,11.2c-5.6,4.3-12.5,6.8-20.1,6.8c-1.3,0-2.6-0.1-3.9-0.2c7.2,4.5,15.8,7.2,24.9,7.2
	c25.4,0,41.1-17.6,45.1-35.8c0.7-3.3,1.1-6.5,1.1-9.7c0-0.7,0-1.4,0-2.1C84.7,31.9,87.4,29,89.6,25.8L89.6,25.8z"/>
</svg>
