<?xml version="1.0" encoding="utf-8"?>
<!-- Generator: Adobe Illustrator 22.0.0, SVG Export Plug-In . SVG Version: 6.00 Build 0)  -->
<svg version="1.1" id="Layer_1" xmlns="http://www.w3.org/2000/svg" xmlns:xlink="http://www.w3.org/1999/xlink" x="0px" y="0px"
	 viewBox="0 0 100 100" style="enable-background:new 0 0 100 100;" xml:space="preserve">
<style type="text/css">
	.st0{fill:#FFFFFF;}
	.st1{fill:#1ABC9C;}
</style>
<path class="st0" d="M90.5,32.8c0,0-0.8-6-3.3-8.5c-3.1-3.4-6.7-3.4-8.2-3.7c-11.6-0.9-28.9-0.9-28.9-0.9H50c0,0-17.3,0-28.8,0.9
	c-1.7,0.2-5.1,0.3-8.3,3.7c-2.5,2.6-3.3,8.5-3.3,8.5s-0.9,7-0.9,13.9v0.9v5.7c0,7,0.9,13.9,0.9,13.9s0.8,6,3.3,8.6
	c3.1,3.4,7.3,3.3,9.1,3.7c6.6,0.7,28.1,0.9,28.1,0.9s17.3-0.1,28.9-0.9c1.6-0.2,5.1-0.2,8.2-3.7c2.5-2.6,3.3-8.6,3.3-8.6
	s0.8-6.9,0.8-13.9v-5.3v-1.3C91.3,39.8,90.5,32.8,90.5,32.8L90.5,32.8z M63.8,49.1l-22.3,12V42.6V37l10.1,5.5L63.8,49.1z"/>
<path class="st1" d="M41.5,61.1l23.2-12L41.5,37L41.5,61.1z"/>
</svg>
